<svg width="53" height="48" viewBox="0 0 53 48" fill="none" xmlns="http://www.w3.org/2000/svg">
<path d="M52.1457 6.9819C51.9276 6.76375 51.7093 6.5455 51.273 6.5455H9.81822L8.72728 0.872819C8.72728 0.436419 8.07273 0.000122088 7.63633 0.000122088H1.09085C0.4364 1.98151e-05 0 0.436419 0 1.09097C0 1.74552 0.4364 2.18192 1.09095 2.18192H6.76373L12.0001 28.8002C12.6547 32.2911 15.9274 34.9093 19.4183 34.9093H44.5093C45.1638 34.9093 45.6002 34.4729 45.6002 33.8184C45.6002 33.1638 45.1638 32.7274 44.5093 32.7274H19.6364C17.891 32.7274 16.1456 31.8547 15.2728 30.3274L47.1275 25.9638C47.5639 25.9638 48.0002 25.5274 48.0002 25.0911L52.3639 7.63645C52.3639 7.63645 52.3639 7.20005 52.1457 6.9819ZM46.0365 24.0002L14.1818 28.1456L10.2545 8.50915H49.7457L46.0365 24.0002Z" fill="#35393C"/>
<path d="M18.5455 37.0911C15.491 37.0911 13.0909 39.4911 13.0909 42.5456C13.0909 45.6002 15.491 48.0001 18.5455 48.0001C21.6001 48.0001 24 45.6001 24 42.5456C24.0001 39.4911 21.6001 37.0911 18.5455 37.0911ZM18.5455 45.8183C16.8 45.8183 15.2727 44.291 15.2727 42.5456C15.2727 40.8002 16.8 39.2729 18.5455 39.2729C20.291 39.2729 21.8182 40.8002 21.8182 42.5456C21.8182 44.291 20.291 45.8183 18.5455 45.8183Z" fill="#35393C"/>
<path d="M40.3639 37.0911C37.3093 37.0911 34.9094 39.4911 34.9094 42.5456C34.9094 45.6002 37.3094 48.0001 40.3639 48.0001C43.4185 48.0001 45.8184 45.6001 45.8184 42.5456C45.8184 39.4911 43.4184 37.0911 40.3639 37.0911ZM40.3639 45.8183C38.6184 45.8183 37.0912 44.291 37.0912 42.5456C37.0912 40.8002 38.6184 39.2729 40.3639 39.2729C42.1094 39.2729 43.6366 40.8002 43.6366 42.5456C43.6366 44.291 42.1093 45.8183 40.3639 45.8183Z" fill="#35393C"/>
</svg>
